<mxfile host="app.diagrams.net" modified="2024-03-29T13:09:37.738Z" agent="Mozilla/5.0 (Windows NT 10.0; Win64; x64) AppleWebKit/537.36 (KHTML, like Gecko) Chrome/123.0.0.0 Safari/537.36" etag="wdDxZrm42FkVLw4LJ2Em" version="24.2.1" type="github">
  <diagram id="C5RBs43oDa-KdzZeNtuy" name="Page-1">
    <mxGraphModel dx="2074" dy="1140" grid="1" gridSize="10" guides="1" tooltips="1" connect="1" arrows="1" fold="1" page="1" pageScale="1" pageWidth="827" pageHeight="1169" math="0" shadow="0">
      <root>
        <mxCell id="WIyWlLk6GJQsqaUBKTNV-0" />
        <mxCell id="WIyWlLk6GJQsqaUBKTNV-1" parent="WIyWlLk6GJQsqaUBKTNV-0" />
        <mxCell id="r_-GkRss-s-w_a3KcGPb-0" style="edgeStyle=orthogonalEdgeStyle;rounded=0;orthogonalLoop=1;jettySize=auto;html=1;" edge="1" parent="WIyWlLk6GJQsqaUBKTNV-1" source="r_-GkRss-s-w_a3KcGPb-2" target="r_-GkRss-s-w_a3KcGPb-5">
          <mxGeometry relative="1" as="geometry" />
        </mxCell>
        <mxCell id="r_-GkRss-s-w_a3KcGPb-1" value="Click &quot;Find the differences&quot;" style="edgeLabel;html=1;align=center;verticalAlign=middle;resizable=0;points=[];" connectable="0" vertex="1" parent="r_-GkRss-s-w_a3KcGPb-0">
          <mxGeometry x="-0.0381" relative="1" as="geometry">
            <mxPoint as="offset" />
          </mxGeometry>
        </mxCell>
        <mxCell id="r_-GkRss-s-w_a3KcGPb-2" value="Home" style="rounded=0;whiteSpace=wrap;html=1;" vertex="1" parent="WIyWlLk6GJQsqaUBKTNV-1">
          <mxGeometry x="87" y="40" width="120" height="60" as="geometry" />
        </mxCell>
        <mxCell id="r_-GkRss-s-w_a3KcGPb-3" style="edgeStyle=orthogonalEdgeStyle;rounded=0;orthogonalLoop=1;jettySize=auto;html=1;exitX=0.5;exitY=1;exitDx=0;exitDy=0;entryX=0.5;entryY=0;entryDx=0;entryDy=0;" edge="1" parent="WIyWlLk6GJQsqaUBKTNV-1" source="r_-GkRss-s-w_a3KcGPb-5" target="r_-GkRss-s-w_a3KcGPb-8">
          <mxGeometry relative="1" as="geometry" />
        </mxCell>
        <mxCell id="r_-GkRss-s-w_a3KcGPb-4" value="Click &quot;Start&quot;" style="edgeLabel;html=1;align=center;verticalAlign=middle;resizable=0;points=[];" connectable="0" vertex="1" parent="r_-GkRss-s-w_a3KcGPb-3">
          <mxGeometry x="0.0029" relative="1" as="geometry">
            <mxPoint as="offset" />
          </mxGeometry>
        </mxCell>
        <mxCell id="r_-GkRss-s-w_a3KcGPb-5" value="Level intro" style="rounded=0;whiteSpace=wrap;html=1;" vertex="1" parent="WIyWlLk6GJQsqaUBKTNV-1">
          <mxGeometry x="87" y="200" width="120" height="60" as="geometry" />
        </mxCell>
        <mxCell id="r_-GkRss-s-w_a3KcGPb-6" style="edgeStyle=orthogonalEdgeStyle;rounded=0;orthogonalLoop=1;jettySize=auto;html=1;entryX=0.5;entryY=0;entryDx=0;entryDy=0;" edge="1" parent="WIyWlLk6GJQsqaUBKTNV-1" source="r_-GkRss-s-w_a3KcGPb-8" target="r_-GkRss-s-w_a3KcGPb-13">
          <mxGeometry relative="1" as="geometry" />
        </mxCell>
        <mxCell id="r_-GkRss-s-w_a3KcGPb-7" value="End level (win/lose)" style="edgeLabel;html=1;align=center;verticalAlign=middle;resizable=0;points=[];" connectable="0" vertex="1" parent="r_-GkRss-s-w_a3KcGPb-6">
          <mxGeometry x="-0.0771" y="-1" relative="1" as="geometry">
            <mxPoint as="offset" />
          </mxGeometry>
        </mxCell>
        <mxCell id="r_-GkRss-s-w_a3KcGPb-8" value="Game" style="rounded=0;whiteSpace=wrap;html=1;" vertex="1" parent="WIyWlLk6GJQsqaUBKTNV-1">
          <mxGeometry x="87" y="360" width="120" height="60" as="geometry" />
        </mxCell>
        <mxCell id="r_-GkRss-s-w_a3KcGPb-9" style="edgeStyle=orthogonalEdgeStyle;rounded=0;orthogonalLoop=1;jettySize=auto;html=1;entryX=0;entryY=0.5;entryDx=0;entryDy=0;" edge="1" parent="WIyWlLk6GJQsqaUBKTNV-1" source="r_-GkRss-s-w_a3KcGPb-13" target="r_-GkRss-s-w_a3KcGPb-5">
          <mxGeometry relative="1" as="geometry">
            <Array as="points">
              <mxPoint x="40" y="550" />
              <mxPoint x="40" y="230" />
            </Array>
          </mxGeometry>
        </mxCell>
        <mxCell id="r_-GkRss-s-w_a3KcGPb-10" value="Lose" style="edgeLabel;html=1;align=center;verticalAlign=middle;resizable=0;points=[];" connectable="0" vertex="1" parent="r_-GkRss-s-w_a3KcGPb-9">
          <mxGeometry x="0.005" y="1" relative="1" as="geometry">
            <mxPoint as="offset" />
          </mxGeometry>
        </mxCell>
        <mxCell id="r_-GkRss-s-w_a3KcGPb-11" style="edgeStyle=orthogonalEdgeStyle;rounded=0;orthogonalLoop=1;jettySize=auto;html=1;exitX=1;exitY=0.5;exitDx=0;exitDy=0;" edge="1" parent="WIyWlLk6GJQsqaUBKTNV-1" source="r_-GkRss-s-w_a3KcGPb-13" target="r_-GkRss-s-w_a3KcGPb-18">
          <mxGeometry relative="1" as="geometry" />
        </mxCell>
        <mxCell id="r_-GkRss-s-w_a3KcGPb-12" value="Win" style="edgeLabel;html=1;align=center;verticalAlign=middle;resizable=0;points=[];" connectable="0" vertex="1" parent="r_-GkRss-s-w_a3KcGPb-11">
          <mxGeometry x="-0.2039" y="-1" relative="1" as="geometry">
            <mxPoint x="-16" y="-1" as="offset" />
          </mxGeometry>
        </mxCell>
        <mxCell id="r_-GkRss-s-w_a3KcGPb-13" value="Level summary" style="rounded=0;whiteSpace=wrap;html=1;" vertex="1" parent="WIyWlLk6GJQsqaUBKTNV-1">
          <mxGeometry x="87" y="520" width="120" height="60" as="geometry" />
        </mxCell>
        <mxCell id="r_-GkRss-s-w_a3KcGPb-14" style="edgeStyle=orthogonalEdgeStyle;rounded=0;orthogonalLoop=1;jettySize=auto;html=1;exitX=0.5;exitY=0;exitDx=0;exitDy=0;entryX=1;entryY=0.5;entryDx=0;entryDy=0;" edge="1" parent="WIyWlLk6GJQsqaUBKTNV-1" source="r_-GkRss-s-w_a3KcGPb-18" target="r_-GkRss-s-w_a3KcGPb-20">
          <mxGeometry relative="1" as="geometry">
            <mxPoint x="280" y="230" as="targetPoint" />
            <Array as="points">
              <mxPoint x="420" y="230" />
            </Array>
          </mxGeometry>
        </mxCell>
        <mxCell id="r_-GkRss-s-w_a3KcGPb-15" value="No" style="edgeLabel;html=1;align=center;verticalAlign=middle;resizable=0;points=[];" connectable="0" vertex="1" parent="r_-GkRss-s-w_a3KcGPb-14">
          <mxGeometry x="0.2867" y="2" relative="1" as="geometry">
            <mxPoint x="2" y="143" as="offset" />
          </mxGeometry>
        </mxCell>
        <mxCell id="r_-GkRss-s-w_a3KcGPb-16" style="edgeStyle=orthogonalEdgeStyle;rounded=0;orthogonalLoop=1;jettySize=auto;html=1;entryX=0.5;entryY=1;entryDx=0;entryDy=0;" edge="1" parent="WIyWlLk6GJQsqaUBKTNV-1" source="r_-GkRss-s-w_a3KcGPb-18" target="r_-GkRss-s-w_a3KcGPb-25">
          <mxGeometry relative="1" as="geometry" />
        </mxCell>
        <mxCell id="r_-GkRss-s-w_a3KcGPb-17" value="Yes" style="edgeLabel;html=1;align=center;verticalAlign=middle;resizable=0;points=[];" connectable="0" vertex="1" parent="r_-GkRss-s-w_a3KcGPb-16">
          <mxGeometry x="-0.0214" relative="1" as="geometry">
            <mxPoint x="-40" y="3" as="offset" />
          </mxGeometry>
        </mxCell>
        <mxCell id="r_-GkRss-s-w_a3KcGPb-18" value="Is it lvl 10?" style="rhombus;whiteSpace=wrap;html=1;" vertex="1" parent="WIyWlLk6GJQsqaUBKTNV-1">
          <mxGeometry x="380" y="510" width="80" height="80" as="geometry" />
        </mxCell>
        <mxCell id="r_-GkRss-s-w_a3KcGPb-19" style="edgeStyle=orthogonalEdgeStyle;rounded=0;orthogonalLoop=1;jettySize=auto;html=1;" edge="1" parent="WIyWlLk6GJQsqaUBKTNV-1" source="r_-GkRss-s-w_a3KcGPb-20" target="r_-GkRss-s-w_a3KcGPb-5">
          <mxGeometry relative="1" as="geometry" />
        </mxCell>
        <mxCell id="r_-GkRss-s-w_a3KcGPb-20" value="level++" style="shape=parallelogram;perimeter=parallelogramPerimeter;whiteSpace=wrap;html=1;fixedSize=1;" vertex="1" parent="WIyWlLk6GJQsqaUBKTNV-1">
          <mxGeometry x="290" y="200" width="120" height="60" as="geometry" />
        </mxCell>
        <mxCell id="r_-GkRss-s-w_a3KcGPb-21" style="edgeStyle=orthogonalEdgeStyle;rounded=0;orthogonalLoop=1;jettySize=auto;html=1;entryX=0.5;entryY=1;entryDx=0;entryDy=0;" edge="1" parent="WIyWlLk6GJQsqaUBKTNV-1" source="r_-GkRss-s-w_a3KcGPb-25" target="r_-GkRss-s-w_a3KcGPb-27">
          <mxGeometry relative="1" as="geometry" />
        </mxCell>
        <mxCell id="r_-GkRss-s-w_a3KcGPb-22" value="Yes" style="edgeLabel;html=1;align=center;verticalAlign=middle;resizable=0;points=[];" connectable="0" vertex="1" parent="r_-GkRss-s-w_a3KcGPb-21">
          <mxGeometry x="-0.0079" relative="1" as="geometry">
            <mxPoint y="4" as="offset" />
          </mxGeometry>
        </mxCell>
        <mxCell id="r_-GkRss-s-w_a3KcGPb-23" style="edgeStyle=orthogonalEdgeStyle;rounded=0;orthogonalLoop=1;jettySize=auto;html=1;entryX=1;entryY=0.5;entryDx=0;entryDy=0;" edge="1" parent="WIyWlLk6GJQsqaUBKTNV-1" source="r_-GkRss-s-w_a3KcGPb-25" target="r_-GkRss-s-w_a3KcGPb-2">
          <mxGeometry relative="1" as="geometry">
            <Array as="points">
              <mxPoint x="690" y="410" />
              <mxPoint x="690" y="70" />
            </Array>
          </mxGeometry>
        </mxCell>
        <mxCell id="r_-GkRss-s-w_a3KcGPb-24" value="No" style="edgeLabel;html=1;align=center;verticalAlign=middle;resizable=0;points=[];" connectable="0" vertex="1" parent="r_-GkRss-s-w_a3KcGPb-23">
          <mxGeometry x="-0.442" y="-1" relative="1" as="geometry">
            <mxPoint x="-51" y="158" as="offset" />
          </mxGeometry>
        </mxCell>
        <mxCell id="r_-GkRss-s-w_a3KcGPb-25" value="Play again?" style="rhombus;whiteSpace=wrap;html=1;" vertex="1" parent="WIyWlLk6GJQsqaUBKTNV-1">
          <mxGeometry x="510" y="370" width="80" height="80" as="geometry" />
        </mxCell>
        <mxCell id="r_-GkRss-s-w_a3KcGPb-26" style="edgeStyle=orthogonalEdgeStyle;rounded=0;orthogonalLoop=1;jettySize=auto;html=1;entryX=0.75;entryY=0;entryDx=0;entryDy=0;" edge="1" parent="WIyWlLk6GJQsqaUBKTNV-1" source="r_-GkRss-s-w_a3KcGPb-27" target="r_-GkRss-s-w_a3KcGPb-5">
          <mxGeometry relative="1" as="geometry">
            <Array as="points">
              <mxPoint x="550" y="170" />
              <mxPoint x="177" y="170" />
            </Array>
          </mxGeometry>
        </mxCell>
        <mxCell id="r_-GkRss-s-w_a3KcGPb-27" value="level = 1" style="shape=parallelogram;perimeter=parallelogramPerimeter;whiteSpace=wrap;html=1;fixedSize=1;" vertex="1" parent="WIyWlLk6GJQsqaUBKTNV-1">
          <mxGeometry x="490" y="200" width="120" height="60" as="geometry" />
        </mxCell>
      </root>
    </mxGraphModel>
  </diagram>
</mxfile>
